# xmcd
#
# Track frame offsets:
#	150
#	26205
#	35166
#	52069
#	67482
#	85453
#	103757
#	121312
#	139519
#	155537
#	171611
#	189949
#	208617
#
# Disc length: 3030 seconds
#
# Revision: 1
# Processed by: cddbd v1.4PL0 Copyright (c) Steve Scherf et al.
# Submitted via: audiograbber 1.81.03
#
DISCID=ca0bd40d
DTITLE=Various Artist - Multi Music Canada - Hott Country 84 - January 2003
DYEAR=2003
DGENRE=Country
TTITLE0=Dixie Chicks - Travelin' Soldier
TTITLE1=Stompin' Tom Connors - The Ketchup Song
TTITLE2=Alan Jackson - That'd Be Alright
TTITLE3=Vince Gill - Next Big Thing
TTITLE4=Alison Krauss and Union Station - New Favorite (Live)
TTITLE5=Montgomery Gentry - Speed
TTITLE6=Doc Walker - Call Me a Fool (Radio Edit)
TTITLE7=Jackson Browne - The Night Inside Me (Radio Edit)
TTITLE8=Nicklecreek - This Side
TTITLE9=Confederate Railroad - She Treats Her Body Like a Temple
TTITLE10=Robin English - Beautiful Today
TTITLE11=Jeff Bates - The Love Song (Single Version)
TTITLE12=Blue Rodeo - Walk Like You Don't Mind
EXTD=
EXTT0=
EXTT1=
EXTT2=
EXTT3=
EXTT4=
EXTT5=
EXTT6=
EXTT7=
EXTT8=
EXTT9=
EXTT10=
EXTT11=
EXTT12=
PLAYORDER=
